<?xml version="1.0" encoding="utf-8"?>
<svg height="800px" width="800px" version="1.1" id="Layer_1" xmlns="http://www.w3.org/2000/svg" viewBox="104.821 -1.882 302.547 281.8" fill="#000000" stroke="#000000" stroke-width="0.0051199900000000005" transform="matrix(1, 0, 0, 1, 0, 0)rotate(0)" xmlns:bx="https://boxy-svg.com" preserveAspectRatio="none"><defs><bx:export><bx:file format="png" path="Sin título.png" excluded="true"/><bx:file format="svg" path="Sin título.svg"/></bx:export></defs><g id="SVGRepo_bgCarrier" stroke-width="0"/><g id="SVGRepo_tracerCarrier" stroke-linecap="round" stroke-linejoin="round" stroke="#CCCCCC" stroke-width="3.071994"/><g id="SVGRepo_iconCarrier"><g/><path style="fill:#000000;" d="M 374.689 284.274 C 374.481 283.712 374.256 283.158 374.04 282.599 C 373.575 281.388 373.093 280.184 372.593 278.987 C 372.302 278.292 372.004 277.6 371.702 276.91 C 371.233 275.838 370.745 274.773 370.249 273.714 C 369.924 273.019 369.603 272.32 369.265 271.63 C 368.658 270.388 368.023 269.161 367.378 267.938 C 366.896 267.026 366.403 266.12 365.901 265.219 C 365.295 264.13 364.684 263.044 364.049 261.971 C 363.607 261.224 363.145 260.486 362.688 259.747 C 358.591 253.126 353.945 246.835 348.731 240.977 C 344.192 235.878 344.039 228.234 348.372 222.959 C 365.844 201.683 375.466 174.777 375.466 147.197 C 375.466 81.322 321.872 27.728 255.997 27.728 C 190.122 27.728 136.528 81.322 136.528 147.197 C 136.528 174.778 146.15 201.683 163.622 222.959 C 167.953 228.234 167.801 235.878 163.263 240.977 C 158.047 246.835 153.403 253.127 149.306 259.747 C 148.849 260.486 148.387 261.224 147.945 261.971 C 147.31 263.042 146.699 264.129 146.093 265.219 C 145.591 266.12 145.097 267.026 144.616 267.938 C 143.971 269.161 143.336 270.388 142.729 271.63 C 142.391 272.319 142.071 273.018 141.745 273.714 C 141.249 274.774 140.762 275.837 140.292 276.91 C 139.99 277.601 139.681 278.288 139.401 278.987 C 138.896 280.248 139.494 278.746 139.035 279.935 C 133.22 280.136 106.904 280.127 104.845 279.952 C 103.967 274.816 100.927 269.724 101.097 265.969 C 101.225 263.143 102.061 261.827 102.208 259.746 C 102.349 257.756 102.461 255.74 102.038 253.756 C 115.664 243.259 127.932 237.358 132.225 235.446 C 133.215 234.076 134.203 232.707 135.236 231.366 C 118.119 206.795 108.801 177.321 108.801 147.198 C 108.801 66.032 174.834 0 255.999 0 C 337.164 0 403.197 66.032 403.196 147.198 C 403.196 177.321 393.878 206.794 376.761 231.366 C 377.794 232.706 378.782 234.076 379.772 235.446 C 384.232 237.432 397.302 243.725 411.558 255.005 C 411.517 257.753 411.339 260.239 411.563 262.413 C 411.763 264.351 412.557 265.039 412.674 267.525 C 412.873 271.713 413.487 284.147 411.119 286.748 C 409.834 288.16 407.942 287.125 405.592 286.801 C 405.171 286.372 404.749 285.948 404.326 285.529 C 404.347 285.6 404.363 285.672 404.384 285.743 C 404.478 286.066 404.562 286.393 404.651 286.718 C 404.332 286.707 404.007 286.715 403.674 286.748 C 398.889 287.227 390.545 290.361 384.339 290.304 C 381.632 290.279 378.955 289.653 376.329 288.925 C 375.81 287.364 375.26 285.814 374.689 284.274 Z M 245.227 273.173 L 191.523 206.977 C 188.47 203.213 187.479 198.494 189.108 193.938 C 189.334 193.163 190.663 188.371 193.877 172.842 L 193.982 172.355 C 195.439 165.541 201.732 160.799 208.689 161.355 C 209.544 161.426 210.277 161.459 210.936 161.459 C 211.863 161.459 212.778 161.412 213.681 161.32 C 227.22 159.94 237.819 148.473 237.819 134.577 L 237.819 134.576 C 237.818 119.752 225.758 107.694 210.936 107.694 C 196.113 107.694 184.054 119.754 184.054 134.576 C 184.054 142.233 177.847 148.44 170.19 148.44 C 162.533 148.44 156.326 142.233 156.326 134.576 C 156.326 104.464 180.824 79.966 210.936 79.966 C 229.625 79.966 246.146 89.408 255.995 103.767 C 265.844 89.408 282.365 79.966 301.054 79.966 C 331.166 79.966 355.664 104.464 355.664 134.576 C 355.664 142.233 349.457 148.44 341.8 148.44 C 334.143 148.44 327.936 142.233 327.936 134.576 C 327.936 119.753 315.876 107.694 301.054 107.694 C 286.23 107.694 274.171 119.752 274.171 134.576 L 274.171 134.577 C 274.171 148.473 284.77 159.94 298.309 161.32 C 299.211 161.412 300.128 161.459 301.054 161.459 C 301.712 161.459 302.447 161.426 303.301 161.355 C 310.241 160.784 316.534 165.461 317.99 172.275 L 318.116 172.853 C 321.327 188.372 322.657 193.162 322.883 193.937 C 324.512 198.492 323.521 203.213 320.468 206.976 L 266.761 273.173 C 264.128 276.419 260.173 278.303 255.994 278.303 C 251.815 278.303 247.86 276.417 245.227 273.173 Z M 217.441 194.917 L 255.991 242.432 L 256.285 242.069 C 256.288 242.065 256.292 242.061 256.295 242.057 L 294.541 194.918 C 294.138 193.197 293.666 191.12 293.116 188.615 C 293.054 188.605 292.994 188.593 292.932 188.583 C 292.342 188.494 291.759 188.385 291.175 188.278 C 290.836 188.217 290.494 188.164 290.157 188.096 C 289.411 187.945 288.674 187.771 287.939 187.589 C 287.772 187.547 287.6 187.514 287.432 187.471 C 286.535 187.241 285.648 186.986 284.77 186.711 C 284.474 186.618 284.186 186.51 283.892 186.413 C 283.311 186.22 282.729 186.029 282.156 185.817 C 281.805 185.686 281.461 185.542 281.113 185.405 C 280.607 185.206 280.1 185.01 279.602 184.796 C 279.236 184.639 278.878 184.47 278.516 184.305 C 278.046 184.091 277.576 183.879 277.113 183.652 C 276.745 183.472 276.384 183.281 276.021 183.092 C 275.576 182.861 275.131 182.633 274.694 182.39 C 274.328 182.187 273.97 181.975 273.61 181.766 C 273.186 181.517 272.763 181.269 272.346 181.01 C 271.988 180.788 271.637 180.559 271.285 180.329 C 270.879 180.063 270.472 179.794 270.073 179.518 C 269.727 179.279 269.384 179.033 269.043 178.785 C 268.652 178.5 268.264 178.212 267.88 177.918 C 267.545 177.661 267.215 177.4 266.886 177.137 C 266.509 176.833 266.138 176.525 265.769 176.212 C 265.45 175.94 265.131 175.666 264.818 175.387 C 264.455 175.064 264.097 174.734 263.742 174.401 C 263.438 174.116 263.136 173.832 262.839 173.541 C 262.489 173.197 262.146 172.847 261.805 172.493 C 261.52 172.198 261.233 171.902 260.954 171.6 C 260.616 171.234 260.288 170.86 259.959 170.484 C 259.694 170.179 259.425 169.879 259.166 169.568 C 258.839 169.176 258.523 168.775 258.205 168.373 C 257.963 168.066 257.716 167.762 257.48 167.45 C 257.158 167.025 256.85 166.589 256.541 166.154 C 256.361 165.902 256.171 165.657 255.995 165.401 C 255.819 165.656 255.629 165.902 255.449 166.154 C 255.139 166.589 254.832 167.024 254.51 167.45 C 254.274 167.763 254.028 168.067 253.785 168.373 C 253.469 168.775 253.153 169.176 252.824 169.568 C 252.565 169.878 252.297 170.18 252.031 170.484 C 251.703 170.86 251.374 171.234 251.036 171.6 C 250.758 171.902 250.471 172.196 250.185 172.493 C 249.844 172.846 249.502 173.197 249.151 173.541 C 248.854 173.833 248.552 174.117 248.248 174.401 C 247.893 174.734 247.535 175.064 247.172 175.387 C 246.859 175.666 246.541 175.94 246.221 176.212 C 245.853 176.526 245.481 176.833 245.104 177.137 C 244.775 177.401 244.444 177.662 244.11 177.918 C 243.728 178.212 243.339 178.501 242.947 178.785 C 242.606 179.033 242.264 179.278 241.917 179.518 C 241.517 179.795 241.113 180.063 240.705 180.329 C 240.352 180.559 240.002 180.788 239.644 181.01 C 239.227 181.27 238.804 181.518 238.38 181.766 C 238.02 181.977 237.661 182.188 237.296 182.39 C 236.858 182.632 236.414 182.862 235.969 183.092 C 235.606 183.28 235.244 183.472 234.877 183.652 C 234.415 183.879 233.944 184.091 233.474 184.305 C 233.112 184.469 232.754 184.639 232.388 184.796 C 231.889 185.01 231.383 185.205 230.877 185.405 C 230.529 185.542 230.185 185.687 229.834 185.817 C 229.261 186.029 228.679 186.22 228.098 186.413 C 227.804 186.511 227.515 186.618 227.22 186.711 C 226.341 186.986 225.454 187.239 224.558 187.471 C 224.391 187.514 224.219 187.547 224.051 187.589 C 223.317 187.77 222.579 187.945 221.833 188.096 C 221.496 188.164 221.153 188.216 220.815 188.278 C 220.231 188.385 219.649 188.494 219.058 188.583 C 218.996 188.593 218.936 188.605 218.874 188.615 C 218.324 191.122 217.853 193.199 217.441 194.917 Z"/></g></svg>